<svg xmlns="http://www.w3.org/2000/svg" xmlns:xlink="http://www.w3.org/1999/xlink" width="500" zoomAndPan="magnify" viewBox="0 0 375 112.499997" height="150" preserveAspectRatio="xMidYMid meet" version="1.0"><defs><g/><clipPath id="94b8d93a53"><path d="M 0.828125 0 L 112.6875 0 L 112.6875 111.855469 L 0.828125 111.855469 Z M 0.828125 0 " clip-rule="nonzero"/></clipPath><clipPath id="591a73d438"><path d="M 30.921875 0 L 82.59375 0 C 83.578125 0 84.5625 0.046875 85.542969 0.144531 C 86.523438 0.242188 87.496094 0.386719 88.464844 0.578125 C 89.429688 0.769531 90.386719 1.007812 91.328125 1.296875 C 92.273438 1.582031 93.199219 1.914062 94.109375 2.289062 C 95.019531 2.667969 95.910156 3.089844 96.777344 3.554688 C 97.648438 4.019531 98.492188 4.523438 99.3125 5.070312 C 100.132812 5.617188 100.921875 6.207031 101.683594 6.832031 C 102.445312 7.457031 103.175781 8.117188 103.871094 8.8125 C 104.570312 9.511719 105.230469 10.238281 105.855469 11 C 106.480469 11.765625 107.066406 12.554688 107.613281 13.375 C 108.160156 14.191406 108.667969 15.039062 109.132812 15.90625 C 109.597656 16.777344 110.019531 17.664062 110.394531 18.578125 C 110.773438 19.488281 111.105469 20.414062 111.390625 21.355469 C 111.675781 22.300781 111.914062 23.253906 112.109375 24.222656 C 112.300781 25.1875 112.445312 26.160156 112.542969 27.144531 C 112.636719 28.125 112.6875 29.105469 112.6875 30.09375 L 112.6875 81.765625 C 112.6875 82.75 112.636719 83.734375 112.542969 84.714844 C 112.445312 85.695312 112.300781 86.667969 112.109375 87.636719 C 111.914062 88.601562 111.675781 89.554688 111.390625 90.5 C 111.105469 91.441406 110.773438 92.371094 110.394531 93.28125 C 110.019531 94.191406 109.597656 95.082031 109.132812 95.949219 C 108.667969 96.820312 108.160156 97.664062 107.613281 98.484375 C 107.066406 99.300781 106.480469 100.09375 105.855469 100.855469 C 105.230469 101.617188 104.570312 102.34375 103.871094 103.042969 C 103.175781 103.738281 102.445312 104.402344 101.683594 105.027344 C 100.921875 105.652344 100.132812 106.238281 99.3125 106.785156 C 98.492188 107.332031 97.648438 107.839844 96.777344 108.304688 C 95.910156 108.769531 95.019531 109.1875 94.109375 109.566406 C 93.199219 109.941406 92.273438 110.273438 91.328125 110.5625 C 90.386719 110.847656 89.429688 111.085938 88.464844 111.277344 C 87.496094 111.46875 86.523438 111.613281 85.542969 111.710938 C 84.5625 111.808594 83.578125 111.855469 82.59375 111.855469 L 30.921875 111.855469 C 29.9375 111.855469 28.953125 111.808594 27.972656 111.710938 C 26.992188 111.613281 26.019531 111.46875 25.050781 111.277344 C 24.085938 111.085938 23.128906 110.847656 22.1875 110.5625 C 21.242188 110.273438 20.316406 109.941406 19.40625 109.566406 C 18.496094 109.1875 17.605469 108.769531 16.738281 108.304688 C 15.867188 107.839844 15.023438 107.332031 14.203125 106.785156 C 13.382812 106.238281 12.59375 105.652344 11.832031 105.027344 C 11.070312 104.402344 10.339844 103.738281 9.644531 103.042969 C 8.945312 102.34375 8.285156 101.617188 7.660156 100.855469 C 7.035156 100.09375 6.449219 99.300781 5.902344 98.484375 C 5.355469 97.664062 4.847656 96.820312 4.382812 95.949219 C 3.917969 95.082031 3.496094 94.191406 3.121094 93.28125 C 2.742188 92.371094 2.410156 91.441406 2.125 90.5 C 1.839844 89.554688 1.601562 88.601562 1.40625 87.636719 C 1.214844 86.667969 1.070312 85.695312 0.972656 84.714844 C 0.878906 83.734375 0.828125 82.75 0.828125 81.765625 L 0.828125 30.09375 C 0.828125 29.105469 0.878906 28.125 0.972656 27.144531 C 1.070312 26.160156 1.214844 25.1875 1.40625 24.222656 C 1.601562 23.253906 1.839844 22.300781 2.125 21.355469 C 2.410156 20.414062 2.742188 19.488281 3.121094 18.578125 C 3.496094 17.664062 3.917969 16.777344 4.382812 15.90625 C 4.847656 15.039062 5.355469 14.191406 5.902344 13.375 C 6.449219 12.554688 7.035156 11.765625 7.660156 11 C 8.285156 10.238281 8.945312 9.511719 9.644531 8.8125 C 10.339844 8.117188 11.070312 7.457031 11.832031 6.832031 C 12.59375 6.207031 13.382812 5.617188 14.203125 5.070312 C 15.023438 4.523438 15.867188 4.019531 16.738281 3.554688 C 17.605469 3.089844 18.496094 2.667969 19.40625 2.289062 C 20.316406 1.914062 21.242188 1.582031 22.1875 1.296875 C 23.128906 1.007812 24.085938 0.769531 25.050781 0.578125 C 26.019531 0.386719 26.992188 0.242188 27.972656 0.144531 C 28.953125 0.046875 29.9375 0 30.921875 0 Z M 30.921875 0 " clip-rule="nonzero"/></clipPath><clipPath id="1e1a611ece"><path d="M 20.238281 22.785156 L 39 22.785156 L 39 89.46875 L 20.238281 89.46875 Z M 20.238281 22.785156 " clip-rule="nonzero"/></clipPath><clipPath id="cc57a26945"><path d="M 38 22.785156 L 57 22.785156 L 57 89.46875 L 38 89.46875 Z M 38 22.785156 " clip-rule="nonzero"/></clipPath><clipPath id="ad0f729c0b"><path d="M 56 22.785156 L 76 22.785156 L 76 89.46875 L 56 89.46875 Z M 56 22.785156 " clip-rule="nonzero"/></clipPath><clipPath id="6455999221"><path d="M 75 22.785156 L 93.375 22.785156 L 93.375 89.46875 L 75 89.46875 Z M 75 22.785156 " clip-rule="nonzero"/></clipPath></defs><g clip-path="url(#94b8d93a53)"><g clip-path="url(#591a73d438)"><path fill="#000000" d="M 0.828125 111.855469 L 112.6875 111.855469 L 112.6875 0 L 0.828125 0 Z M 0.828125 111.855469 " fill-opacity="1" fill-rule="nonzero"/></g></g><g clip-path="url(#1e1a611ece)"><path fill="#f2f3f3" d="M 20.375 89.46875 L 38.574219 67.21875 L 38.574219 22.785156 L 20.292969 45.136719 Z M 20.375 89.46875 " fill-opacity="1" fill-rule="nonzero"/></g><g clip-path="url(#cc57a26945)"><path fill="#ed0302" d="M 38.574219 22.785156 L 56.804688 45.03125 L 56.804688 89.46875 L 38.574219 67.117188 Z M 38.574219 22.785156 " fill-opacity="1" fill-rule="nonzero"/></g><g clip-path="url(#ad0f729c0b)"><path fill="#f2f3f3" d="M 56.886719 89.46875 L 75.085938 67.21875 L 75.085938 22.785156 L 56.804688 45.136719 Z M 56.886719 89.46875 " fill-opacity="1" fill-rule="nonzero"/></g><g clip-path="url(#6455999221)"><path fill="#ed0302" d="M 75.085938 22.785156 L 93.324219 45.03125 L 93.324219 89.46875 L 75.085938 67.117188 Z M 75.085938 22.785156 " fill-opacity="1" fill-rule="nonzero"/></g><g fill="#2e404f" fill-opacity="1"><g transform="translate(115.919158, 86.234724)"><g><path d="M 2.46875 0 L 2.46875 -55.921875 L 13.609375 -55.921875 L 13.609375 -35.9375 L 18.875 -35.9375 L 18.875 -55.921875 L 30.015625 -55.921875 L 30.015625 0 L 18.875 0 L 18.875 -25.390625 L 13.609375 -25.390625 L 13.609375 0 Z M 2.46875 0 "/></g></g></g><g fill="#2e404f" fill-opacity="1"><g transform="translate(148.397247, 86.234724)"><g><path d="M 16.140625 0.515625 C 6.640625 0.515625 1.890625 -4.40625 1.890625 -14.25 L 1.890625 -33.390625 C 1.890625 -37.898438 3.15625 -41.488281 5.6875 -44.15625 C 8.226562 -46.832031 11.710938 -48.171875 16.140625 -48.171875 C 20.566406 -48.171875 24.050781 -46.832031 26.59375 -44.15625 C 29.132812 -41.488281 30.40625 -37.898438 30.40625 -33.390625 L 30.40625 -14.25 C 30.40625 -4.40625 25.648438 0.515625 16.140625 0.515625 Z M 16.140625 -8.265625 C 17.054688 -8.265625 17.726562 -8.585938 18.15625 -9.234375 C 18.59375 -9.890625 18.8125 -10.78125 18.8125 -11.90625 L 18.8125 -35.21875 C 18.8125 -37.988281 17.921875 -39.375 16.140625 -39.375 C 14.359375 -39.375 13.46875 -37.988281 13.46875 -35.21875 L 13.46875 -11.90625 C 13.46875 -10.78125 13.6875 -9.890625 14.125 -9.234375 C 14.5625 -8.585938 15.234375 -8.265625 16.140625 -8.265625 Z M 16.140625 -8.265625 "/></g></g></g><g fill="#2e404f" fill-opacity="1"><g transform="translate(180.745146, 86.234724)"><g><path d="M 2.28125 -47.65625 L 13.40625 -47.65625 L 13.40625 -42.109375 C 13.925781 -44.148438 14.816406 -45.671875 16.078125 -46.671875 C 17.335938 -47.671875 19.117188 -48.171875 21.421875 -48.171875 C 23.285156 -48.171875 24.898438 -47.742188 26.265625 -46.890625 C 27.628906 -46.046875 28.59375 -44.890625 29.15625 -43.421875 C 30.113281 -45.066406 31.175781 -46.269531 32.34375 -47.03125 C 33.519531 -47.789062 35.148438 -48.171875 37.234375 -48.171875 C 40.960938 -48.171875 43.550781 -47.03125 45 -44.75 C 46.457031 -42.46875 47.1875 -39.160156 47.1875 -34.828125 L 47.0625 0 L 35.609375 0 L 35.609375 -35.015625 C 35.609375 -38.097656 34.828125 -39.640625 33.265625 -39.640625 C 32.179688 -39.640625 31.398438 -39.109375 30.921875 -38.046875 C 30.441406 -36.984375 30.203125 -35.710938 30.203125 -34.234375 L 30.203125 0 L 18.8125 0 L 18.8125 -35.015625 C 18.8125 -36.359375 18.671875 -37.441406 18.390625 -38.265625 C 18.109375 -39.097656 17.507812 -39.515625 16.59375 -39.515625 C 15.425781 -39.515625 14.601562 -38.9375 14.125 -37.78125 C 13.644531 -36.632812 13.40625 -35.257812 13.40625 -33.65625 L 13.40625 0 L 2.28125 0 Z M 2.28125 -47.65625 "/></g></g></g><g fill="#2e404f" fill-opacity="1"><g transform="translate(230.080582, 86.234724)"><g><path d="M 15.625 0.515625 C 10.71875 0.515625 7.203125 -0.828125 5.078125 -3.515625 C 2.953125 -6.203125 1.890625 -10.21875 1.890625 -15.5625 L 1.890625 -34.6875 C 1.890625 -39.070312 3.144531 -42.414062 5.65625 -44.71875 C 8.175781 -47.019531 11.691406 -48.171875 16.203125 -48.171875 C 25.359375 -48.171875 29.9375 -43.675781 29.9375 -34.6875 L 29.9375 -31.25 C 29.9375 -27.769531 29.894531 -24.945312 29.8125 -22.78125 L 13.28125 -22.78125 L 13.28125 -13.546875 C 13.28125 -11.890625 13.453125 -10.59375 13.796875 -9.65625 C 14.148438 -8.726562 14.890625 -8.265625 16.015625 -8.265625 C 16.878906 -8.265625 17.492188 -8.523438 17.859375 -9.046875 C 18.234375 -9.566406 18.453125 -10.160156 18.515625 -10.828125 C 18.578125 -11.503906 18.609375 -12.492188 18.609375 -13.796875 L 18.609375 -18.421875 L 29.9375 -18.421875 L 29.9375 -15.6875 C 29.9375 -10.132812 28.863281 -6.046875 26.71875 -3.421875 C 24.570312 -0.796875 20.875 0.515625 15.625 0.515625 Z M 18.609375 -28.453125 L 18.609375 -34.5625 C 18.609375 -37.988281 17.765625 -39.703125 16.078125 -39.703125 C 14.171875 -39.703125 13.21875 -37.988281 13.21875 -34.5625 L 13.21875 -28.453125 Z M 18.609375 -28.453125 "/></g></g></g><g fill="#2e404f" fill-opacity="1"><g transform="translate(261.84272, 86.234724)"><g><path d="M 2.28125 -47.65625 L 13.40625 -47.65625 L 13.40625 -42.109375 C 13.925781 -44.148438 14.816406 -45.671875 16.078125 -46.671875 C 17.335938 -47.671875 19.117188 -48.171875 21.421875 -48.171875 C 23.285156 -48.171875 24.898438 -47.742188 26.265625 -46.890625 C 27.628906 -46.046875 28.59375 -44.890625 29.15625 -43.421875 C 30.113281 -45.066406 31.175781 -46.269531 32.34375 -47.03125 C 33.519531 -47.789062 35.148438 -48.171875 37.234375 -48.171875 C 40.960938 -48.171875 43.550781 -47.03125 45 -44.75 C 46.457031 -42.46875 47.1875 -39.160156 47.1875 -34.828125 L 47.0625 0 L 35.609375 0 L 35.609375 -35.015625 C 35.609375 -38.097656 34.828125 -39.640625 33.265625 -39.640625 C 32.179688 -39.640625 31.398438 -39.109375 30.921875 -38.046875 C 30.441406 -36.984375 30.203125 -35.710938 30.203125 -34.234375 L 30.203125 0 L 18.8125 0 L 18.8125 -35.015625 C 18.8125 -36.359375 18.671875 -37.441406 18.390625 -38.265625 C 18.109375 -39.097656 17.507812 -39.515625 16.59375 -39.515625 C 15.425781 -39.515625 14.601562 -38.9375 14.125 -37.78125 C 13.644531 -36.632812 13.40625 -35.257812 13.40625 -33.65625 L 13.40625 0 L 2.28125 0 Z M 2.28125 -47.65625 "/></g></g></g><g fill="#2e404f" fill-opacity="1"><g transform="translate(311.178156, 86.234724)"><g><path d="M 10.9375 0.515625 C 7.25 0.515625 4.71875 -0.707031 3.34375 -3.15625 C 1.976562 -5.601562 1.296875 -9.109375 1.296875 -13.671875 C 1.296875 -17.398438 1.785156 -20.257812 2.765625 -22.25 C 3.742188 -24.25 5.097656 -25.71875 6.828125 -26.65625 C 8.566406 -27.59375 11.21875 -28.625 14.78125 -29.75 L 17.90625 -30.796875 L 17.90625 -35.671875 C 17.90625 -36.929688 17.65625 -37.894531 17.15625 -38.5625 C 16.65625 -39.238281 16.054688 -39.578125 15.359375 -39.578125 C 14.753906 -39.578125 14.222656 -39.296875 13.765625 -38.734375 C 13.304688 -38.171875 13.078125 -37.410156 13.078125 -36.453125 L 13.078125 -33.59375 L 2.015625 -33.59375 L 2.015625 -35.15625 C 2.015625 -39.84375 3.109375 -43.179688 5.296875 -45.171875 C 7.492188 -47.171875 11.066406 -48.171875 16.015625 -48.171875 C 19.960938 -48.171875 23.171875 -47.140625 25.640625 -45.078125 C 28.117188 -43.015625 29.359375 -40.097656 29.359375 -36.328125 L 29.359375 0 L 18.03125 0 L 18.03125 -5.65625 C 17.46875 -3.707031 16.566406 -2.191406 15.328125 -1.109375 C 14.085938 -0.0234375 12.625 0.515625 10.9375 0.515625 Z M 15.421875 -8.328125 C 16.296875 -8.328125 16.914062 -8.6875 17.28125 -9.40625 C 17.644531 -10.125 17.828125 -11.003906 17.828125 -12.046875 L 17.828125 -25.328125 C 16.140625 -24.671875 14.894531 -23.84375 14.09375 -22.84375 C 13.289062 -21.84375 12.890625 -20.457031 12.890625 -18.6875 L 12.890625 -12.5625 C 12.890625 -9.738281 13.734375 -8.328125 15.421875 -8.328125 Z M 15.421875 -8.328125 "/></g></g></g><g fill="#2e404f" fill-opacity="1"><g transform="translate(342.614857, 86.234724)"><g><path d="M 2.28125 -47.65625 L 13.859375 -47.65625 L 13.859375 -45.109375 C 15.515625 -47.148438 17.796875 -48.171875 20.703125 -48.171875 C 24.390625 -48.171875 26.957031 -46.929688 28.40625 -44.453125 C 29.863281 -41.984375 30.59375 -38.554688 30.59375 -34.171875 L 30.59375 -16.53125 C 30.59375 -12.800781 30.375 -9.753906 29.9375 -7.390625 C 29.507812 -5.023438 28.554688 -3.113281 27.078125 -1.65625 C 25.597656 -0.207031 23.363281 0.515625 20.375 0.515625 C 17.507812 0.515625 15.335938 -0.285156 13.859375 -1.890625 L 13.859375 9.5 L 2.28125 9.5 Z M 16.59375 -8.328125 C 17.632812 -8.328125 18.304688 -8.804688 18.609375 -9.765625 C 18.921875 -10.722656 19.078125 -12.113281 19.078125 -13.9375 L 19.078125 -34.171875 C 19.078125 -35.816406 18.921875 -37.070312 18.609375 -37.9375 C 18.304688 -38.8125 17.613281 -39.25 16.53125 -39.25 C 14.75 -39.25 13.859375 -37.597656 13.859375 -34.296875 L 13.859375 -13.40625 C 13.859375 -11.800781 14.039062 -10.550781 14.40625 -9.65625 C 14.78125 -8.769531 15.507812 -8.328125 16.59375 -8.328125 Z M 16.59375 -8.328125 "/></g></g></g></svg>